<svg width="15" height="11" viewBox="0 0 15 11" fill="none" xmlns="http://www.w3.org/2000/svg">
<path d="M14.6992 1.38644C14.6567 1.33546 14.6031 1.29427 14.5423 1.26584C14.4815 1.23741 14.4149 1.22243 14.3475 1.222H4.83781L5.1347 2.11089H13.7491L12.5296 7.44422H5.67824L3.59087 1.01311C3.56829 0.94487 3.52908 0.882957 3.47659 0.832653C3.42409 0.782349 3.35987 0.745147 3.28941 0.724222L1.41671 0.164222C1.35912 0.147004 1.29862 0.140991 1.23865 0.146526C1.17868 0.152061 1.12041 0.169035 1.06719 0.19648C0.959685 0.251907 0.879215 0.346618 0.843479 0.459777C0.807743 0.572936 0.819668 0.695274 0.87663 0.799878C0.933593 0.904481 1.03093 0.982782 1.14722 1.01755L2.78697 1.50644L4.88348 7.95089L4.1344 8.54644L4.07503 8.60422C3.88974 8.81199 3.78471 9.07614 3.77804 9.35115C3.77137 9.62617 3.86348 9.89484 4.03849 10.1109C4.16298 10.2582 4.32118 10.3751 4.50042 10.4523C4.67967 10.5295 4.87499 10.5648 5.07075 10.5553H12.694C12.8151 10.5553 12.9313 10.5085 13.017 10.4252C13.1026 10.3418 13.1508 10.2288 13.1508 10.1109C13.1508 9.99301 13.1026 9.87997 13.017 9.79662C12.9313 9.71327 12.8151 9.66644 12.694 9.66644H4.99767C4.94508 9.66469 4.89383 9.64978 4.84889 9.62313C4.80395 9.59649 4.76682 9.55901 4.74111 9.51433C4.7154 9.46965 4.70196 9.41928 4.7021 9.36807C4.70223 9.31686 4.71594 9.26655 4.74189 9.222L5.84267 8.33311H12.895C13.0006 8.33562 13.1038 8.30245 13.1871 8.23924C13.2703 8.17604 13.3285 8.0867 13.3517 7.98644L14.7997 1.76422C14.8135 1.69796 14.8117 1.62949 14.7943 1.56403C14.7769 1.49856 14.7443 1.43783 14.6992 1.38644Z" fill="#102942"/>
</svg>
